<svg width="1379" height="428" viewBox="0 0 1379 428" fill="none" xmlns="http://www.w3.org/2000/svg">
<path d="M1.19956 416.637V410.324L11.0959 404.012C14.6946 401.908 17.2937 397.91 18.8931 392.018C20.4925 385.705 21.2922 378.34 21.2922 369.923V66.2832C19.093 56.1829 17.2937 48.6077 15.8942 43.5575C14.6946 38.5074 13.2951 34.2989 11.6957 30.9322C10.0963 27.1446 7.89711 22.5153 5.09813 17.0443L0 6.31268V0H53.0805L152.644 285.965V47.9764C152.644 39.5595 151.944 31.9843 150.545 25.2507C149.345 18.5172 146.746 14.0983 142.748 11.9941L132.851 6.31268V0H175.736V6.31268L167.639 11.9941C164.04 14.5192 161.841 18.938 161.041 25.2507C160.241 31.5634 159.841 38.9282 159.841 47.3451V418.531H143.048L28.4896 87.115V369.923C28.4896 378.34 29.0893 385.495 30.2889 391.386C31.4885 397.278 33.9875 401.487 37.7862 404.012L46.7829 410.324V416.637H1.19956Z" fill="black"/>
<path d="M258.233 103.528C271.229 103.528 282.325 109.209 291.521 120.572C300.718 131.514 307.715 146.665 312.514 166.024C317.512 184.962 320.011 206.635 320.011 231.044C320.011 235.674 319.911 240.513 319.711 245.563C319.511 250.193 319.111 254.401 318.511 258.189H229.144C229.344 303.64 233.143 336.466 240.54 356.667C248.137 376.446 259.333 386.336 274.128 386.336C284.124 386.336 292.221 382.969 298.419 376.236C304.616 369.502 310.414 359.613 315.812 346.566L318.811 352.248C312.614 375.394 304.317 393.491 293.92 406.537C283.724 419.583 271.429 426.106 257.034 426.106C242.839 426.106 230.244 419.794 219.248 407.168C208.252 394.122 199.655 375.605 193.457 351.617C187.259 327.628 184.161 299.011 184.161 265.764C184.161 231.255 187.759 202.006 194.957 178.018C202.154 153.609 211.351 135.091 222.547 122.466C233.942 109.841 245.838 103.528 258.233 103.528ZM257.334 116.153C251.536 116.153 246.538 119.941 242.339 127.516C238.341 134.671 235.142 147.717 232.743 166.655C230.544 185.172 229.344 211.475 229.144 245.563H280.425C282.425 199.691 281.625 166.655 278.026 146.454C274.428 126.254 267.53 116.153 257.334 116.153Z" fill="black"/>
<path d="M389.236 426.106C381.439 426.106 374.242 422.95 367.644 416.637C361.246 410.324 356.148 400.224 352.35 386.336C348.751 372.028 347.052 353.3 347.252 330.153L348.151 167.917C348.151 158.238 347.352 151.294 345.752 147.086C344.153 142.877 341.654 139.931 338.255 138.248L334.656 135.723V129.41L388.337 107.316L391.335 113.628L389.836 203.268V355.404C389.836 368.871 391.635 378.761 395.234 385.074C399.033 391.386 403.731 394.543 409.329 394.543C414.927 394.543 419.925 392.859 424.323 389.493C428.722 386.126 433.12 381.076 437.519 374.342L438.718 168.549C438.718 158.869 438.018 152.136 436.619 148.348C435.219 144.14 432.62 141.194 428.822 139.51L425.823 137.617V131.304L478.304 107.316L481.302 113.628L480.403 203.268V374.342C480.403 383.601 481.003 390.755 482.202 395.805C483.402 400.855 486.001 405.064 489.999 408.431L492.998 410.324V416.637L440.517 422.95L437.818 385.705C431.221 397.068 424.023 406.747 416.226 414.743C408.629 422.319 399.632 426.106 389.236 426.106Z" fill="black"/>
<path d="M505.109 416.637V410.324L509.607 407.799C513.605 405.274 516.305 401.487 517.704 396.437C519.303 391.386 520.103 384.863 520.103 376.867V179.28C520.103 170.022 519.303 163.288 517.704 159.08C516.305 154.45 513.605 151.294 509.607 149.611L505.109 147.086V140.773L556.69 104.159L559.689 110.472L562.388 164.761V169.811C565.187 158.028 568.785 147.296 573.184 137.617C577.782 127.516 582.78 119.31 588.178 112.997C593.776 106.684 599.274 103.528 604.672 103.528C612.269 103.528 618.067 107.947 622.066 116.785C626.064 125.622 628.064 136.775 628.064 150.242C628.064 164.551 626.064 175.703 622.066 183.699C618.267 191.274 613.669 195.062 608.271 195.062C599.874 195.062 592.477 186.224 586.079 168.549L585.479 167.286C583.48 161.394 581.181 158.238 578.582 157.817C575.983 156.975 573.583 159.5 571.384 165.392C569.385 169.18 567.686 173.809 566.286 179.28C565.087 184.33 563.887 190.222 562.687 196.956V373.08C562.687 389.913 566.186 400.435 573.184 404.643L582.78 410.324V416.637H505.109Z" fill="black"/>
<path d="M708.668 426.106C693.474 426.106 680.279 419.583 669.083 406.537C657.887 393.07 649.19 374.132 642.992 349.723C636.995 325.314 633.996 296.696 633.996 263.87C633.996 231.044 637.195 202.637 643.592 178.649C650.19 154.661 659.086 136.144 670.282 123.097C681.678 110.051 694.474 103.528 708.668 103.528C722.863 103.528 735.558 110.051 746.754 123.097C757.95 135.723 766.747 154.029 773.145 178.018C779.742 202.006 783.041 230.623 783.041 263.87C783.041 297.117 779.942 325.945 773.745 350.354C767.747 374.342 759.15 393.07 747.954 406.537C736.958 419.583 723.863 426.106 708.668 426.106ZM708.668 413.481C715.666 413.481 721.264 409.272 725.462 400.855C729.661 392.439 732.66 377.499 734.459 356.035C736.458 334.572 737.458 304.271 737.458 265.133C737.458 225.573 736.458 195.062 734.459 173.599C732.66 152.136 729.661 137.196 725.462 128.779C721.264 120.362 715.666 116.153 708.668 116.153C701.671 116.153 695.973 120.362 691.575 128.779C687.376 137.196 684.277 152.136 682.278 173.599C680.479 195.062 679.579 225.573 679.579 265.133C679.579 304.271 680.479 334.572 682.278 356.035C684.277 377.499 687.376 392.439 691.575 400.855C695.973 409.272 701.671 413.481 708.668 413.481Z" fill="black"/>
<path d="M819.133 416.637V410.324L831.429 404.012C839.626 400.224 843.724 389.703 843.724 372.448V12.6254H818.234C810.836 12.6254 805.538 16.8338 802.339 25.2507C799.141 33.2468 795.742 44.3992 792.143 58.708L781.347 102.897H778.348L779.848 0H952.884L954.084 102.897H951.085L940.289 58.708C936.89 44.3992 933.591 33.2468 930.393 25.2507C927.194 16.8338 921.896 12.6254 914.498 12.6254H889.008V372.448C889.008 389.703 893.106 400.224 901.303 404.012L913.599 410.324V416.637H819.133Z" fill="black"/>
<path d="M1059.1 428C1043.91 428 1030.41 422.319 1018.62 410.956C1007.02 399.593 997.924 381.707 991.326 357.298C984.929 332.468 981.73 299.853 981.73 259.451V41.6637C981.73 25.6716 977.831 15.1504 970.034 10.1003L963.437 6.31268V0H1046.51V6.31268L1037.81 11.3628C1030.41 15.1504 1026.71 25.6716 1026.71 42.9263V275.864C1026.71 315.003 1030.61 344.041 1038.41 362.979C1046.21 381.497 1057.4 390.755 1072 390.755C1087.19 390.755 1099.19 380.865 1107.98 361.086C1116.98 341.306 1121.48 313.32 1121.48 277.127V45.4513C1121.48 37.0344 1120.78 29.6696 1119.38 23.3569C1118.18 16.6234 1115.58 12.2045 1111.58 10.1003L1104.09 6.31268V0H1146.07V6.31268L1137.97 10.7316C1134.17 12.4149 1131.68 16.413 1130.48 22.7257C1129.28 29.0383 1128.68 36.4031 1128.68 44.82V275.864C1128.68 306.586 1125.78 333.52 1119.98 356.667C1114.18 379.392 1106.08 397.068 1095.69 409.693C1085.29 421.898 1073.1 428 1059.1 428Z" fill="black"/>
<path d="M1154.38 416.637V410.324L1160.38 405.906C1167.18 401.276 1170.58 389.282 1170.58 369.923V46.7139C1170.58 38.297 1170.08 31.5634 1169.08 26.5133C1168.28 21.4631 1165.98 17.2547 1162.18 13.8879L1154.38 6.31268V0H1212.26L1267.74 305.534L1319.92 0H1379V6.31268L1374.2 10.1003C1370.4 13.0462 1367.8 17.2547 1366.4 22.7257C1365.01 27.7758 1364.31 34.5093 1364.31 42.9263V373.08C1364.31 381.497 1364.81 388.02 1365.8 392.649C1366.8 397.278 1369.2 401.276 1373 404.643L1379 410.324V416.637H1304.33V410.324L1310.62 404.643C1314.42 401.276 1316.82 397.278 1317.82 392.649C1318.82 388.02 1319.32 381.497 1319.32 373.08V231.044L1319.92 50.5015L1257.24 416.637H1242.25L1176.87 54.9204L1177.77 212.106V371.186C1177.77 380.444 1178.37 388.02 1179.57 393.911C1180.97 399.383 1183.57 403.381 1187.37 405.906L1193.97 410.324V416.637H1154.38Z" fill="black"/>
</svg>
