<?xml version="1.0" encoding="UTF-8" standalone="no"?>
<!-- Created with Inkscape (http://www.inkscape.org/) -->

<svg
   version="1.1"
   id="svg1"
   width="1722.8346"
   height="812.98126"
   viewBox="0 0 1722.8346 812.98127"
   sodipodi:docname="neurotum logo with text.svg"
   inkscape:version="1.3 (0e150ed6c4, 2023-07-21)"
   xml:space="preserve"
   xmlns:inkscape="http://www.inkscape.org/namespaces/inkscape"
   xmlns:sodipodi="http://sodipodi.sourceforge.net/DTD/sodipodi-0.dtd"
   xmlns:xlink="http://www.w3.org/1999/xlink"
   xmlns="http://www.w3.org/2000/svg"
   xmlns:svg="http://www.w3.org/2000/svg"><defs
     id="defs1"><rect
       x="777.43274"
       y="463.30399"
       width="101.84082"
       height="60.243862"
       id="rect2" /><linearGradient
       id="linearGradient9"
       inkscape:collect="always"><stop
         style="stop-color:#1b1baa;stop-opacity:1;"
         offset="0"
         id="stop9" /><stop
         style="stop-color:#1b1baa;stop-opacity:0;"
         offset="1"
         id="stop10" /></linearGradient><inkscape:path-effect
       effect="mirror_symmetry"
       start_point="0,426"
       end_point="774,426"
       center_point="387,426"
       id="path-effect13"
       is_visible="true"
       lpeversion="1.2"
       lpesatellites=""
       mode="free"
       discard_orig_path="false"
       fuse_paths="false"
       oposite_fuse="false"
       split_items="false"
       split_open="false"
       link_styles="true" /><linearGradient
       inkscape:collect="always"
       xlink:href="#linearGradient9"
       id="linearGradient10"
       x1="585.03217"
       y1="301.22253"
       x2="1015.7333"
       y2="301.22253"
       gradientUnits="userSpaceOnUse" /></defs><sodipodi:namedview
     id="namedview1"
     pagecolor="#ffffff"
     bordercolor="#999999"
     borderopacity="1"
     inkscape:showpageshadow="2"
     inkscape:pageopacity="0"
     inkscape:pagecheckerboard="0"
     inkscape:deskcolor="#d1d1d1"
     inkscape:zoom="0.69716646"
     inkscape:cx="707.14819"
     inkscape:cy="461.15242"
     inkscape:window-width="2560"
     inkscape:window-height="1377"
     inkscape:window-x="1912"
     inkscape:window-y="-8"
     inkscape:window-maximized="1"
     inkscape:current-layer="layer1" /><g
     inkscape:groupmode="layer"
     inkscape:label="Image"
     id="g1"
     style="display:inline"
     transform="translate(-29.414235,-14.950983)"
     sodipodi:insensitive="true"><g
       id="g14"
       inkscape:label="network"><g
         id="g17"
         inkscape:label="neurons"><circle
           style="opacity:1;fill:#030349;fill-opacity:1;stroke:none;stroke-width:15.1181;stroke-opacity:0"
           id="path1-3"
           inkscape:transform-center-x="1.7749518"
           inkscape:transform-center-y="-1.5213872"
           cy="426.99802"
           cx="175.17447"
           r="38.415028"
           inkscape:label="left" /><g
           id="g15"
           inkscape:label="right"><circle
             style="opacity:1;fill:#030349;fill-opacity:1;stroke:none;stroke-width:15.1181;stroke-opacity:0"
             id="path1-6"
             inkscape:transform-center-x="1.7749518"
             inkscape:transform-center-y="-1.5213872"
             cy="312.90063"
             cx="717.31781"
             r="38.415028" /><circle
             style="opacity:1;fill:#030349;fill-opacity:1;stroke:none;stroke-width:15.1181;stroke-opacity:0"
             id="path1-9"
             inkscape:transform-center-x="1.7749518"
             inkscape:transform-center-y="-1.5213872"
             cy="541.0954"
             cx="719.07318"
             r="38.415028" /></g><g
           id="g13"
           inkscape:label="middle"><circle
             style="opacity:1;fill:#030349;fill-opacity:1;stroke:none;stroke-width:15.1181;stroke-opacity:0"
             id="path1"
             inkscape:transform-center-x="1.7749518"
             inkscape:transform-center-y="-1.5213872"
             cy="195.45477"
             cx="440.43588"
             r="38.415028" /><circle
             style="opacity:1;fill:#030349;fill-opacity:1;stroke:none;stroke-width:15.1181;stroke-opacity:0"
             id="path1-4"
             inkscape:transform-center-x="1.7749518"
             inkscape:transform-center-y="-1.5213872"
             cy="349.81693"
             cx="440.43588"
             r="38.415028" /><circle
             style="opacity:1;fill:#030349;fill-opacity:1;stroke:none;stroke-width:15.1181;stroke-opacity:0"
             id="path1-7"
             inkscape:transform-center-x="1.7749518"
             inkscape:transform-center-y="-1.5213872"
             cy="504.17911"
             cx="440.43588"
             r="38.415028" /><circle
             style="opacity:1;fill:#030349;fill-opacity:1;stroke:none;stroke-width:15.1181;stroke-opacity:0"
             id="path1-45"
             inkscape:transform-center-x="1.7749518"
             inkscape:transform-center-y="-1.5213872"
             cy="658.54126"
             cx="440.43588"
             r="38.415028" /></g></g><g
         id="g42"
         inkscape:path-effect="#path-effect13"
         inkscape:label="connections"
         style="fill:#89a7ed;fill-opacity:1"><path
           style="opacity:1;fill:none;fill-opacity:1;stroke:#030349;stroke-width:24.189;stroke-dasharray:none;stroke-opacity:1"
           d="M 189.15965,403.18254 440.43588,194.95477 Z m 0,45.63492 251.27623,208.22777 z"
           id="path36"
           sodipodi:nodetypes="ccc"
           inkscape:original-d="M 189.15965,403.18254 440.43588,194.95477 Z" /><path
           style="opacity:1;fill:none;fill-opacity:1;stroke:#030349;stroke-width:24.189;stroke-dasharray:none;stroke-opacity:1"
           d="m 460.68488,197.96493 232.34433,104.9598 z m 0,456.07014 232.34433,-104.9598 z"
           id="path37"
           sodipodi:nodetypes="ccc"
           inkscape:original-d="m 460.68488,197.96493 232.34433,104.9598 z" /><path
           style="opacity:1;fill:none;fill-opacity:1;stroke:#030349;stroke-width:24.189;stroke-dasharray:none;stroke-opacity:1"
           d="M 695.44355,313.94677 464.8203,346.58958 Z m 0,224.10646 -230.62325,-32.64281 z"
           id="path38"
           sodipodi:nodetypes="ccc"
           inkscape:original-d="M 695.44355,313.94677 464.8203,346.58958 Z" /><path
           style="opacity:1;fill:none;fill-opacity:1;stroke:#030349;stroke-width:24.189;stroke-dasharray:none;stroke-opacity:1"
           d="m 419.83198,356.63022 -222.73716,60.32716 z m 0,138.73956 -222.73716,-60.32716 z"
           id="path39"
           sodipodi:nodetypes="ccc"
           inkscape:original-d="M 419.83198,356.63022 197.09482,416.95738 Z" /><path
           style="opacity:1;fill:none;fill-opacity:1;stroke:#030349;stroke-width:24.189;stroke-dasharray:none;stroke-opacity:1"
           d="M 694.61805,328.32019 458.72419,485.8908 Z m 0,195.35962 L 458.72419,366.1092 Z"
           id="path40"
           sodipodi:nodetypes="ccc"
           inkscape:original-d="M 694.61805,328.32019 458.72419,485.8908 Z" /><path
           style="opacity:1;fill:none;fill-opacity:1;stroke:#030349;stroke-width:24.189;stroke-dasharray:none;stroke-opacity:1"
           d="m 711.24275,341.09375 -256.1045,298.44201 z m 0,169.8125 -256.1045,-298.44201 z"
           id="path41"
           sodipodi:nodetypes="ccc"
           inkscape:original-d="M 711.24275,341.09375 455.13825,639.53576 Z" /></g></g><path
       style="display:inline;opacity:1;fill:#ee8896;fill-opacity:1;stroke-width:2.83403"
       d="m 400.78508,827.41423 c -20.86921,-2.76796 -52.92858,-25.84314 -63.02158,-45.36084 -1.96646,-3.8027 -3.41475,-4.04865 -10.60658,-1.80088 -58.46701,18.27369 -120.65594,-9.00596 -135.29017,-59.34587 -1.46841,-5.05119 -2.38618,-6.27492 -8.13998,-10.85336 -12.20816,-9.71434 -19.82641,-24.9698 -21.98143,-44.01764 -0.60014,-5.30454 -1.00206,-6.16131 -3.29503,-7.02402 -9.84099,-3.7026 -22.76104,-12.40698 -30.96024,-20.85831 -3.88708,-4.00659 -16.14154,-21.06371 -16.14154,-22.4676 0,-0.30201 -0.86893,-2.4563 -1.93096,-4.78729 -9.965309,-21.87229 -11.600558,-46.77032 -4.52707,-68.92832 3.18931,-9.99059 3.13011,-10.75895 -1.14382,-14.84626 -5.779791,-5.5274 -16.568493,-19.77971 -17.993878,-23.77063 -6.990275,-19.57206 15.150908,-33.27781 28.382838,-17.56949 26.4246,31.37002 38.09147,37.82534 83.00928,45.92911 24.56073,4.43112 43.04898,30.72329 25.64345,36.46762 -5.25965,1.73585 -8.12899,0.54497 -15.54669,-6.4525 -5.53118,-5.21784 -7.60178,-6.50748 -12.04488,-7.50196 -2.95101,-0.66049 -9.0444,-2.06769 -13.54088,-3.12703 -4.49647,-1.05937 -8.93601,-1.92613 -9.86567,-1.92613 -0.92967,0 -7.25439,-1.85028 -14.05495,-4.11175 -37.7656,-12.55861 -28.60264,61.55357 9.93753,80.37725 9.42873,4.60515 15.72784,4.63529 18.68526,0.0896 9.19183,-14.12875 28.61647,-24.36745 49.96305,-26.33539 21.33975,-1.96735 24.16246,-3.36162 23.2471,-11.48266 -1.24819,-11.07389 2.96277,-17.66498 11.36713,-17.79203 8.57766,-0.1298 11.92076,6.05927 11.15434,20.64958 -1.16549,22.18747 -10.49341,28.02955 -49.31465,30.88577 -13.09887,0.9637 -31.33635,15.46105 -34.84358,27.69785 -10.61934,37.051 21.9758,48.99355 57.09519,20.91917 18.04848,-14.42792 33.18843,-1.57395 17.03662,14.46433 -10.04976,9.9792 -24.14838,17.16555 -45.5127,23.19887 -7.72628,2.18196 8.71328,25.29061 24.07741,33.84495 22.1964,12.35842 52.59034,13.63824 73.58191,3.09832 14.60674,-7.33406 13.07136,-4.45828 12.97755,-24.30794 -0.0488,-10.33513 0.37388,-19.18604 1.01363,-21.22207 0.60355,-1.92094 1.09747,-4.93594 1.09747,-6.69993 0,-14.36861 11.05662,-34.79757 18.83324,-34.79757 11.1835,0 13.07249,6.7083 6.75032,23.97263 -17.02846,46.50115 2.49868,102.29731 38.90229,111.15812 14.82006,3.6073 21.94184,-10.53579 16.60347,-32.97267 -5.36492,-22.54839 26.23975,-30.46111 32.66681,-8.17869 12.90519,44.74179 -12.17373,81.10374 -52.26961,75.78579 z M 51.744632,499.27564 C 47.90138,496.9321 40.765667,483.42605 36.906016,471.18995 24.666382,432.38718 27.606689,382.77191 44.388303,344.93261 c 11.242569,-25.34984 22.298384,-34.53287 31.04503,-25.78626 4.661585,4.66162 4.167525,10.163 -1.618566,18.02285 -25.302159,34.37053 -29.860477,102.67185 -9.541477,142.96842 7.708782,15.28803 0.133702,26.85926 -12.528658,19.13802 z m 35.609166,-36.79 c -16.34601,-5.97539 -16.239735,-68.37905 0.13087,-76.84463 11.269413,-5.82763 17.616472,4.32889 12.405692,19.85153 -3.728446,11.10683 -4.206976,21.29529 -1.489114,31.70488 4.179244,16.00676 3.755964,20.31337 -2.363175,24.04449 -3.1565,1.92465 -5.789862,2.30178 -8.684273,1.24373 z M 111.0324,380.7841 c -12.695415,-4.60469 -14.450945,-18.7422 -3.81481,-30.72102 5.08727,-5.72949 5.0937,-5.37216 -0.28422,-15.78911 C 74.020222,270.52175 91.189972,197.8289 146.1941,168.05295 c 3.1461,-1.70312 3.1461,-1.70312 3.17056,-10.99759 0.0782,-29.75686 19.07646,-53.71576 44.92972,-56.6615 6.08612,-0.693453 5.40388,0.094 11.65339,-13.450882 18.50877,-40.115073 73.38932,-56.973934 121.35341,-37.278781 6.4986,2.668459 6.4986,2.668459 9.49787,-1.066526 29.70504,-36.990726 79.15025,-44.7590493 107.68149,-16.917817 23.77406,23.199126 19.23973,95.345456 -5.69957,90.686306 -13.00591,-2.42977 -14.8526,-7.27577 -14.03295,-36.824229 1.08824,-39.228919 -22.343,-49.840658 -52.4606,-23.758835 -9.39393,8.135151 -9.4384,7.231572 0.88879,18.034032 26.20383,27.409632 33.39452,53.997242 16.51159,61.051382 -10.7959,4.51081 -17.60269,0.63095 -25.41717,-14.48774 -37.39354,-72.345311 -146.03349,-64.933376 -130.58363,8.90902 4.78888,22.88834 17.34777,31.06401 33.08676,21.53903 24.21724,-14.65588 43.11076,-10.46035 54.11476,12.01682 9.98218,20.38983 3.68836,62.07442 -9.58381,63.47534 -10.67908,1.12721 -14.16041,-6.29541 -9.99785,-21.31653 7.86286,-28.37384 -3.21402,-47.64124 -20.85616,-36.27778 -26.08486,16.80154 -46.68129,11.02844 -62.31914,-17.46787 -2.69708,-4.91477 -6.80494,-16.40544 -6.80494,-19.035 0,-6.7685 -12.57275,-6.39471 -20.91129,0.62169 -5.54011,4.6617 -8.45095,16.3034 -6.22886,24.9119 0.56776,2.19951 1.5023,5.79871 2.07677,7.99825 2.55615,9.78696 -2.48504,18.89878 -12.19122,22.0353 -52.13366,16.84685 -66.36259,86.40638 -28.18329,137.77673 6.69522,9.00843 7.37368,9.16914 16.47137,3.90205 18.7538,-10.85751 27.17696,-27.22777 28.42214,-55.2379 1.38931,-31.25244 10.97265,-46.97069 35.63824,-58.45259 19.84954,-9.24002 28.36031,9.80473 8.94166,20.00894 -17.57089,9.23324 -23.03576,19.42118 -23.03576,42.94464 0,36.59347 -20.7984,65.70013 -54.98794,76.9537 -9.10175,2.99584 -18.03743,7.7304 -24.49462,12.97845 -8.00906,6.5093 -15.18516,8.52253 -21.81142,6.11914 z"
       id="path1-91"
       inkscape:label="brain" /></g><g
     inkscape:groupmode="layer"
     id="layer1"
     inkscape:label="text"
     style="display:inline"
     sodipodi:insensitive="true"><path
       style="font-size:355px;font-family:BelyDisplayW00-Regular;-inkscape-font-specification:BelyDisplayW00-Regular;letter-spacing:19.7px;fill:#030349;stroke-width:9.51406"
       d="m 1024.5543,381.35996 v 100.11 h -0.355 q -38.34003,-88.04 -88.39503,-94.075 v 243.885 h 31.95 v 5.68 h -142 v -5.68 h 31.95 v -243.885 q -49.7,6.035 -88.04,94.075 h -0.355 v -100.11 z m 177.3197,262.7 q -61.415,0 -88.395,-26.98 -26.98,-27.335 -26.98,-85.2 v -131.705 l -31.595,-18.815 h 141.29 l -31.595,18.815 v 136.675 q 0,33.37 5.68,54.315 5.68,20.59 17.75,31.24 12.425,10.65 34.08,10.65 30.53,0 44.73,-23.43 14.2,-23.43 11.715,-74.195 l -6.035,-135.255 -42.245,-18.815 h 100.82 l -31.595,18.815 -6.39,146.615 q -1.42,34.79 -9.94,55.38 -8.165,20.59 -26.625,31.24 -18.46,10.65 -54.67,10.65 z m 493.9806,-12.78 h 26.98 v 5.68 h -140.935 v -5.68 h 35.5 l -28.045,-217.615 -74.905,225.07 h -19.525 l -89.105,-225.425 -9.585,217.97 h 36.565 v 5.68 h -86.265 v -5.68 h 22.72 l 31.24,-230.395 v -0.355 l -31.95,-19.17 h 108.63 l 62.125,162.945 39.405,-162.945 h 119.99 l -31.95,19.17 z"
       id="text2"
       inkscape:label="TUM"
       aria-label="TUM" /><path
       style="font-size:330px;font-family:BelyDisplayW00-Regular;-inkscape-font-specification:BelyDisplayW00-Regular;letter-spacing:1px;fill:#030349;stroke-width:7.77501"
       d="m 954.07325,346.7474 h 16.5 v 5.28 h -95.7 v -5.28 h 13.2 v -99.33 q 0,-18.48 -4.95,-26.4 -4.62,-7.92 -14.85,-7.92 -8.91,0 -19.8,4.95 v 128.7 h 13.2 v 5.28 h -95.7 v -5.28 h 16.5 v -120.45 l -18.81,-16.17 84.81,-29.7 v 33 q 22.44,-19.47 36.96,-25.41 14.52,-5.94 26.07,-5.94 20.79,0 31.68,13.2 10.89,12.87 10.89,37.95 z m 182.82975,-24.75 0.33,0.33 q -10.56,15.84 -27.39,24.42 -16.83,8.58 -39.27,8.58 -17.16,0 -32.67,-5.94 -15.51,-5.94 -27.39,-16.83 -11.54996,-10.89 -18.14996,-26.4 -6.6,-15.84 -6.6,-34.32 0,-17.82 5.94,-33.99 5.94,-16.17 16.82996,-28.05 11.22,-12.21 27.06,-19.14 16.17,-6.93 35.31,-6.93 23.1,0 37.62,12.21 14.85,11.88 14.85,30.03 0,20.79 -15.84,38.28 -15.51,17.16 -44.88,28.05 14.19,13.86 31.35,22.44 17.49,8.25 33.33,8.25 5.28,0 9.57,-0.99 z m -96.69,-126.72 q -6.27,0 -9.9,5.28 -3.63,5.28 -3.63,14.19 0,19.47 9.24,39.6 9.57,20.13 24.75,35.97 12.87,-16.5 12.87,-41.91 0,-14.85 -6.27,-27.39 -5.94,-12.87 -13.2,-19.14 -7.26,-6.6 -13.86,-6.6 z m 289.42,151.47 h 16.5 v 5.28 h -82.5 v -25.41 q -25.08,18.15 -37.29,23.76 -12.21,5.28 -21.78,5.28 -22.11,0 -32.34,-13.53 -10.23,-13.53 -10.23,-42.9 v -70.95 l -18.81,-16.17 84.81,-29.7 v 103.62 q 0,21.78 3.63,30.36 3.63,8.25 15.18,8.25 7.59,0 16.83,-3.3 v -94.71 l -18.81,-16.17 84.81,-29.7 z m 167.6501,-163.35 q 3.3,0 6.27,0.99 v 87.45 h -0.33 q -21.45,-23.76 -36.3,-34.98 -14.52,-11.22 -25.08,-9.57 v 119.46 h 24.75 v 5.28 h -107.25 v -5.28 h 16.5 v -119.79 l -18.81,-16.17 84.81,-28.38 v 41.25 q 13.86,-18.15 29.04,-29.04 15.18,-11.22 26.4,-11.22 z m 118.4801,171.93 q -17.49,0 -34.32,-5.94 -16.5,-6.27 -29.37,-17.82 -12.54,-11.55 -20.13,-27.72 -7.26,-16.17 -7.26,-35.31 0,-17.16 6.6,-32.67 6.6,-15.84 18.81,-27.39 12.21,-11.55 29.04,-18.15 16.83,-6.6 36.3,-6.6 20.13,0 37.29,5.94 17.49,5.94 30.03,17.16 12.54,11.22 19.47,27.06 6.93,15.84 6.93,34.65 0,18.15 -5.94,33.99 -5.94,15.84 -17.82,27.72 -11.55,11.88 -29.37,18.48 -17.82,6.6 -40.26,6.6 z m 36.96,-11.88 q 13.53,0 13.53,-16.83 0,-10.23 -9.24,-31.68 -8.91,-21.78 -22.77,-44.88 -13.53,-23.1 -28.05,-38.61 -14.19,-15.84 -24.42,-15.84 -6.27,0 -9.9,4.29 -3.3,4.29 -3.3,11.88 0,11.55 9.24,33.66 9.24,22.11 23.1,44.88 13.86,22.44 28.05,37.95 14.19,15.18 23.76,15.18 z"
       id="text1"
       inkscape:label="neuro"
       aria-label="neuro" /></g></svg>
