<?xml version="1.0" encoding="UTF-8"?>
<!-- Generator: Adobe Illustrator 22.1.0, SVG Export Plug-In . SVG Version: 6.00 Build 0)  -->
<svg version="1.1" id="Ebene_1" xmlns="http://www.w3.org/2000/svg" xmlns:xlink="http://www.w3.org/1999/xlink" x="0px" y="0px" viewBox="0 0 680 312" style="enable-background:new 0 0 680 312;" xml:space="preserve">
<style type="text/css">
	.st0{fill:#EA5906;}
</style>
<g>
	<path class="st0" d="M86.5,174.6c0-2.1,0-3.9,0-5.9c67.1,0,134,0,201.2,0c0,2,0,3.9,0,5.9C220.6,174.6,153.7,174.6,86.5,174.6z"/>
	<path class="st0" d="M302.8,103.1c0,2.1,0,4,0,6c-67.2,0-134.1,0-201.2,0c0-2,0-3.9,0-6C168.6,103.1,235.5,103.1,302.8,103.1z"/>
	<path class="st0" d="M302.7,214.3c0,2.1,0,3.9,0,6c-59.7,0-119.1,0-178.6,0c0-2.1,0-4,0-6C183.6,214.3,243,214.3,302.7,214.3z"/>
	<path class="st0" d="M131.5,155.2c0-2,0-3.8,0-5.9c57,0,114,0,171.2,0c0,2,0,3.8,0,5.9C245.7,155.2,188.8,155.2,131.5,155.2z"/>
	<path class="st0" d="M154.4,239.9c0-2.1,0-4,0-6c49.6,0,99,0,148.9,0c0,1,0,2,0,2.9c0,1,0,1.9,0,3   C253.5,239.9,204.1,239.9,154.4,239.9z"/>
	<path class="st0" d="M280.2,130.1c0,2.1,0,4,0,5.9c-42.1,0-84.1,0-126.1,0c0-1.9,0-3.7,0-5.9C196,130.1,238,130.1,280.2,130.1z"/>
	<path class="st0" d="M191.6,201c0-2,0-3.9,0-5.9c36.9,0,73.8,0,111.1,0c0,1.8,0,3.7,0,5.9C265.7,201,228.8,201,191.6,201z"/>
	<path class="st0" d="M302.7,83.5c0,2.1,0,3.9,0,6c-32.1,0-64,0-96.1,0c0-2,0-3.9,0-6C238.7,83.5,270.6,83.5,302.7,83.5z"/>
	<path class="st0" d="M302.8,64.1c0,2.1,0,3.8,0,5.8c-17,0-34,0-51.1,0c0-1.8,0-3.7,0-5.8C268.7,64.1,285.6,64.1,302.8,64.1z"/>
	<path class="st0" d="M182.6,89.5c-12,0-23.7,0-35.6,0c0-2.1,0-4,0-6c11.9,0,23.6,0,35.6,0C182.6,85.4,182.6,87.3,182.6,89.5z"/>
	<path class="st0" d="M242.7,64.2c0,2,0,3.8,0,5.9c-8.2,0-16.2,0-24.2,0c0-2,0-3.8,0-5.9C226.5,64.2,234.4,64.2,242.7,64.2z"/>
	<path class="st0" d="M124,239.9c0-2,0-3.8,0-5.9c7.1,0,14.1,0,21.4,0c0,2,0,3.9,0,5.9C138.4,239.9,131.4,239.9,124,239.9z"/>
	<path class="st0" d="M144.9,130c0,2.1,0,3.9,0,5.9c-7,0-13.9,0-20.9,0c0-1.9,0-3.8,0-5.9C130.9,130,137.8,130,144.9,130z"/>
	<path class="st0" d="M79,109.1c0-2.1,0-3.9,0-5.9c4.7,0,9.3,0,13.9,0c0,2.1,0,3.9,0,5.9C88.4,109.1,83.8,109.1,79,109.1z"/>
	<path class="st0" d="M114.9,220.4c-4.6,0-9,0-13.4,0c0-2.1,0-3.9,0-5.9c4.4,0,8.8,0,13.4,0C114.9,216.2,114.9,218.1,114.9,220.4z"/>
	<path class="st0" d="M169.2,194.9c4.5,0,8.8,0,13.4,0c0,2,0,3.9,0,6c-4.4,0-8.9,0-13.4,0C169.2,199.1,169.2,197.2,169.2,194.9z"/>
	<path class="st0" d="M77.4,168.6c0,2,0,3.9,0,6.1c-2.3,0-4.4,0-6.7,0s-4.4,0-6.8,0c0-2.1,0-4,0-6.1   C68.4,168.6,72.8,168.6,77.4,168.6z"/>
	<path class="st0" d="M41.3,220.2c0-2.1,0-3.9,0-5.9c2,0,3.9,0,6,0c0,1.9,0,3.8,0,5.9C45.3,220.2,43.4,220.2,41.3,220.2z"/>
	<path class="st0" d="M78.9,220.3c0-2.1,0-3.9,0-5.9c2,0,3.8,0,5.9,0c0,1.8,0,3.7,0,5.9C83,220.3,81.1,220.3,78.9,220.3z"/>
	<path class="st0" d="M191.6,70.1c0-2,0-3.9,0-5.9c2,0,3.9,0,6,0c0,1.9,0,3.8,0,5.9C195.6,70.1,193.8,70.1,191.6,70.1z"/>
	<path class="st0" d="M26.5,239.9c0-2,0-3.8,0-5.9c1.9,0,3.9,0,6,0c0,2.1,0,3.9,0,5.9C30.4,239.9,28.5,239.9,26.5,239.9z"/>
	<path class="st0" d="M77.8,240c-2,0-3.8,0-5.9,0c0-2,0-3.9,0-6c2,0,3.9,0,5.9,0C77.8,236,77.8,237.8,77.8,240z"/>
	<path class="st0" d="M94,239.9c0-2.1,0-3.9,0-5.9c2,0,3.9,0,6,0c0,2.1,0,3.9,0,5.9C98,239.9,96.1,239.9,94,239.9z"/>
	<path class="st0" d="M79.1,83.5c2,0,3.8,0,5.8,0c0,2,0,3.9,0,6c-2,0-3.8,0-5.8,0C79.1,87.5,79.1,85.6,79.1,83.5z"/>
	<path class="st0" d="M114.9,136c-2.1,0-3.8,0-5.8,0c0-2,0-3.8,0-6c1.8,0,3.7,0,5.8,0C114.9,132,114.9,133.9,114.9,136z"/>
	<path class="st0" d="M94,135.9c0-2,0-3.8,0-5.9c1.9,0,3.8,0,5.9,0c0,2,0,3.9,0,5.9C98,135.9,96.1,135.9,94,135.9z"/>
	<path class="st0" d="M41.4,155.2c0-2,0-3.8,0-5.8c2,0,3.9,0,5.9,0c0,1.9,0,3.7,0,5.8C45.4,155.2,43.4,155.2,41.4,155.2z"/>
	<path class="st0" d="M69.9,155.3c-2.1,0-3.9,0-5.9,0c0-2,0-3.9,0-5.9c1.9,0,3.7,0,5.9,0C69.9,151.4,69.9,153.3,69.9,155.3z"/>
	<path class="st0" d="M107.5,149.4c0,2,0,3.9,0,5.9c-1.9,0-3.7,0-5.9,0c0-1.9,0-3.7,0-5.9C103.4,149.4,105.2,149.4,107.5,149.4z"/>
	<path class="st0" d="M77.5,130c0,2.1,0,4,0,5.9c-2,0-3.9,0-5.9,0c0-1.9,0-3.8,0-5.9C73.5,130,75.4,130,77.5,130z"/>
	<path class="st0" d="M4,168.6c2.1,0,3.9,0,5.9,0c0,2,0,3.8,0,5.9c-1.9,0-3.7,0-5.9,0C4,172.7,4,170.8,4,168.6z"/>
	<path class="st0" d="M40,174.6c-2.1,0-4,0-6,0c0-2,0-3.9,0-5.9c2,0,3.9,0,6,0C40,170.6,40,172.4,40,174.6z"/>
	<path class="st0" d="M33.9,201c0-2.1,0-3.9,0-5.9c2,0,3.9,0,6,0c0,1.9,0,3.7,0,5.9C38,201,36.1,201,33.9,201z"/>
	<path class="st0" d="M94,201c0-2.1,0-3.9,0-5.9c1.9,0,3.7,0,5.9,0c0,1.8,0,3.7,0,5.9C98,201,96.1,201,94,201z"/>
	<path class="st0" d="M124,201c0-2.1,0-4,0-5.9c2,0,3.9,0,5.9,0c0,2,0,3.9,0,5.9C128,201,126.2,201,124,201z"/>
	<path class="st0" d="M154.1,194.9c2,0,3.8,0,5.9,0c0,1.9,0,3.8,0,6c-1.9,0-3.8,0-5.9,0C154.1,199.1,154.1,197.2,154.1,194.9z"/>
	<path class="st0" d="M70,109.1c-2.1,0-4,0-6,0c0-2,0-3.9,0-6c2,0,3.9,0,6,0C70,105.2,70,107,70,109.1z"/>
	<path class="st0" d="M34,103.1c2,0,3.8,0,5.9,0c0,2,0,4,0,6c-2,0-3.8,0-5.9,0C34,107.3,34,105.4,34,103.1z"/>
	<path class="st0" d="M124.1,83.4c2.1,0,3.8,0,5.9,0c0,2,0,3.9,0,6c-1.9,0-3.8,0-5.9,0C124.1,87.4,124.1,85.5,124.1,83.4z"/>
	<g>
		<g>
			<path class="st0" d="M343.8,62.6v47.7h-6.3V62.6H343.8z"/>
			<path class="st0" d="M358.6,75.7v5.5h0.2c2.4-4.2,6.1-6.3,11.2-6.3c2.3,0,4.2,0.3,5.7,1c1.5,0.6,2.8,1.5,3.6,2.6     c1,1.1,1.6,2.5,2,4c0.4,1.5,0.6,3.2,0.6,5.1v22.7h-5.7V86.9c0-2.1-0.6-3.8-1.9-5.1c-1.3-1.3-2.9-1.9-5.1-1.9     c-1.7,0-3.2,0.2-4.5,0.8c-1.3,0.6-2.3,1.3-3.2,2.3c-0.9,1-1.5,2.1-1.9,3.4c-0.4,1.3-0.6,2.8-0.6,4.3v19.5h-5.7V75.7H358.6z"/>
			<path class="st0" d="M390.4,69.4v-6.9h5.7v7L390.4,69.4L390.4,69.4z M396.1,75.7v34.5h-5.7V75.7H396.1z"/>
			<path class="st0" d="M419.4,75.7v5h-6.9v21.5c0,0.6,0.1,1.2,0.2,1.6c0.1,0.4,0.3,0.7,0.6,1c0.3,0.2,0.7,0.4,1.3,0.4     c0.6,0.1,1.3,0.1,2.1,0.1h2.6v5h-4.2c-1.5,0-2.7-0.1-3.8-0.3c-1-0.2-1.9-0.6-2.5-1.1c-0.6-0.6-1.1-1.3-1.4-2.3     c-0.3-1-0.5-2.3-0.5-3.9V80.7h-5.9v-5h5.9V65.3h5.7v10.4H419.4z"/>
			<path class="st0" d="M425.8,69.4v-6.9h5.7v7L425.8,69.4L425.8,69.4z M431.5,75.7v34.5h-5.7V75.7H431.5z"/>
			<path class="st0" d="M470.6,110.1c-1,0.6-2.4,0.9-4,0.9c-1.5,0-2.6-0.4-3.5-1.3c-0.9-0.8-1.3-2.1-1.3-4c-1.6,1.9-3.4,3.2-5.5,4     c-2.1,0.8-4.3,1.3-6.7,1.3c-1.6,0-3-0.2-4.4-0.6c-1.4-0.4-2.6-1-3.6-1.7c-1-0.8-1.8-1.7-2.5-3c-0.6-1.2-0.9-2.7-0.9-4.4     c0-2,0.3-3.6,1-4.8c0.6-1.3,1.6-2.3,2.6-3c1.1-0.8,2.4-1.3,3.7-1.7c1.4-0.4,2.9-0.7,4.3-1c1.6-0.3,3-0.6,4.4-0.7     c1.4-0.2,2.6-0.4,3.7-0.6c1-0.3,1.9-0.7,2.5-1.3c0.6-0.6,1-1.3,1-2.5c0-1.3-0.2-2.2-0.7-3c-0.5-0.8-1-1.3-1.8-1.7     c-0.7-0.4-1.6-0.6-2.5-0.8c-1-0.2-1.8-0.2-2.7-0.2c-2.4,0-4.4,0.5-6,1.3c-1.6,1-2.5,2.6-2.6,5.1h-5.7c0.1-2.1,0.6-4,1.3-5.4     c0.8-1.5,1.9-2.7,3.2-3.6c1.3-0.9,2.9-1.6,4.6-2s3.6-0.6,5.5-0.6c1.6,0,3.1,0.1,4.7,0.3c1.5,0.2,2.9,0.7,4.2,1.3     c1.3,0.7,2.2,1.7,3,2.9c0.8,1.3,1.1,2.9,1.1,4.8v17.7c0,1.3,0.1,2.3,0.2,2.9c0.2,0.6,0.7,1,1.6,1c0.5,0,1-0.1,1.7-0.2     L470.6,110.1L470.6,110.1z M461.4,92.4c-0.7,0.6-1.7,1-2.8,1.2c-1.2,0.2-2.4,0.5-3.6,0.6c-1.3,0.2-2.5,0.3-3.8,0.6     c-1.3,0.2-2.5,0.6-3.5,1c-1,0.5-1.8,1.1-2.5,1.9s-1,1.9-1,3.3c0,1,0.2,1.7,0.6,2.4c0.4,0.6,0.9,1.2,1.5,1.6     c0.6,0.4,1.3,0.7,2.1,0.9c0.8,0.2,1.7,0.2,2.5,0.2c1.9,0,3.5-0.2,4.8-0.8c1.3-0.5,2.5-1.2,3.2-1.9c0.9-0.8,1.5-1.6,1.9-2.5     c0.4-0.9,0.6-1.7,0.6-2.5v-5.9H461.4z"/>
			<path class="st0" d="M490.4,75.7v5h-6.9v21.5c0,0.6,0.1,1.2,0.2,1.6c0.1,0.4,0.3,0.7,0.6,1c0.3,0.2,0.7,0.4,1.3,0.4     c0.6,0.1,1.3,0.1,2.1,0.1h2.6v5H486c-1.5,0-2.7-0.1-3.8-0.3c-1-0.2-1.9-0.6-2.5-1.1c-0.6-0.6-1.1-1.3-1.4-2.3     c-0.3-1-0.5-2.3-0.5-3.9V80.7h-5.9v-5h5.9V65.3h5.7v10.4H490.4z"/>
			<path class="st0" d="M496.8,69.4v-6.9h5.7v7L496.8,69.4L496.8,69.4z M502.5,75.7v34.5h-5.7V75.7H502.5z"/>
			<path class="st0" d="M520.4,110.2l-12.8-34.5h6.3l9.7,28.8h0.2l9.4-28.8h5.9l-12.6,34.5C526.6,110.2,520.4,110.2,520.4,110.2z"/>
			<path class="st0" d="M568.6,108c-2.6,2-5.9,2.9-9.7,2.9c-2.8,0-5.1-0.5-7.2-1.3s-3.7-2.1-5.1-3.7c-1.3-1.6-2.5-3.5-3.1-5.8     c-0.7-2.2-1.1-4.7-1.2-7.3c0-2.6,0.4-5.1,1.2-7.2c0.8-2.2,1.9-4,3.4-5.7c1.4-1.6,3.2-2.9,5.1-3.7c2-0.9,4.1-1.3,6.5-1.3     c3.1,0,5.6,0.6,7.7,1.9c2.1,1.3,3.6,2.9,4.9,4.8c1.2,2,2.1,4.1,2.5,6.4c0.5,2.3,0.6,4.5,0.6,6.7h-25.9c-0.1,1.5,0.2,2.9,0.6,4.3     s1,2.5,1.9,3.6c0.9,1,2.1,1.9,3.4,2.5c1.3,0.6,3,1,4.9,1c2.4,0,4.4-0.6,5.9-1.7c1.5-1.1,2.5-2.8,3-5.1h5.6     C572.8,103.2,571.1,106,568.6,108z M567.2,85.8c-0.5-1.2-1.2-2.2-2.1-3.1c-0.9-0.9-1.9-1.6-3.1-2.1c-1.2-0.5-2.5-0.8-3.9-0.8     c-1.5,0-2.8,0.2-4,0.8c-1.2,0.5-2.2,1.2-3,2.1c-0.9,0.9-1.5,1.9-2,3.1c-0.5,1.2-0.8,2.5-0.9,3.8h19.8     C568.1,88.3,567.7,87,567.2,85.8z"/>
			<path class="st0" d="M594.6,80.7v-5h5.8v-5.1c0-2.8,0.8-4.9,2.5-6.4c1.7-1.5,4-2.1,7.1-2.1c0.6,0,1.1,0.1,1.8,0.2     c0.7,0.1,1.3,0.2,1.8,0.4v4.9c-0.5-0.2-1-0.3-1.6-0.4s-1.1-0.1-1.6-0.1c-1.3,0-2.5,0.2-3.2,0.8c-0.8,0.6-1.1,1.6-1.1,3.1v4.8h6.7     v5h-6.7v29.5h-5.7V80.7H594.6z"/>
			<path class="st0" d="M616.8,85.9c0.7-2.2,1.7-4.1,3.2-5.8c1.4-1.7,3.2-2.9,5.3-3.8c2.1-1,4.5-1.4,7.2-1.4c2.8,0,5.1,0.5,7.3,1.4     c2.1,1,3.8,2.2,5.2,3.8c1.4,1.7,2.5,3.6,3.2,5.8s1,4.6,1,7.1s-0.4,4.9-1,7.1c-0.7,2.2-1.7,4.1-3.2,5.7c-1.4,1.7-3.2,2.9-5.2,3.8     c-2.1,1-4.5,1.3-7.3,1.3c-2.7,0-5.1-0.5-7.2-1.3c-2.1-1-3.9-2.2-5.3-3.8c-1.4-1.7-2.5-3.6-3.2-5.7c-0.7-2.2-1-4.5-1-7.1     C615.7,90.4,616.1,88.1,616.8,85.9z M622.6,98.6c0.6,1.7,1.3,3,2.3,4c1,1.1,2.1,1.9,3.4,2.5c1.3,0.6,2.7,0.9,4.2,0.9     s2.9-0.3,4.2-0.9c1.3-0.6,2.5-1.4,3.4-2.5c1-1.1,1.7-2.5,2.3-4c0.6-1.7,0.9-3.5,0.9-5.5s-0.3-4-0.9-5.5c-0.6-1.7-1.3-3-2.3-4.1     s-2.1-2-3.4-2.5c-1.3-0.6-2.7-0.9-4.2-0.9s-2.9,0.3-4.2,0.9c-1.3,0.6-2.5,1.4-3.4,2.5s-1.7,2.5-2.3,4.1c-0.6,1.7-0.9,3.5-0.9,5.5     S622,96.9,622.6,98.6z"/>
			<path class="st0" d="M660.7,75.7V83h0.2c1.3-2.8,3.1-4.9,5.1-6.2c2-1.3,4.5-2,7.6-1.9v6c-2.3,0-4.2,0.3-5.8,1     c-1.6,0.6-2.9,1.5-3.9,2.8c-1,1.2-1.7,2.7-2.1,4.4c-0.5,1.7-0.6,3.7-0.6,5.9v15.4h-5.7V75.7H660.7z"/>
		</g>
		<g>
			<path class="st0" d="M348.1,130.6v47.7h-10.5v-47.7H348.1z"/>
			<path class="st0" d="M366.4,143.8v4.8h0.2c1.2-2,2.8-3.5,4.7-4.4c1.9-1,3.9-1.3,5.9-1.3c2.5,0,4.6,0.3,6.3,1s2.9,1.7,3.8,2.9     c1,1.2,1.6,2.7,2,4.5c0.4,1.7,0.6,3.7,0.6,5.9v21.2h-9.5v-19.5c0-2.9-0.5-5-1.3-6.4c-0.9-1.4-2.5-2.1-4.8-2.1     c-2.6,0-4.4,0.8-5.6,2.3s-1.7,4-1.7,7.6v18.1h-9.5v-34.5L366.4,143.8L366.4,143.8z"/>
			<path class="st0" d="M422.4,173.9c-1.1,1.9-2.5,3.2-4.4,4s-3.8,1.3-6.1,1.3c-2.6,0-4.8-0.5-6.8-1.5c-2-1-3.6-2.4-4.8-4     c-1.3-1.7-2.2-3.7-2.9-5.9c-0.6-2.2-1-4.5-1-7c0-2.3,0.3-4.5,1-6.7c0.6-2.1,1.6-4,2.9-5.7c1.3-1.7,2.9-3,4.8-4     c1.9-1,4.1-1.5,6.7-1.5c2.1,0,4,0.4,5.9,1.3c1.8,0.9,3.3,2.1,4.4,3.8h0.2v-17.3h9.5v47.7h-9v-4.4H422.4z M422,156.8     c-0.2-1.3-0.7-2.5-1.3-3.5s-1.5-1.8-2.5-2.5c-1-0.6-2.3-1-3.9-1c-1.6,0-2.9,0.3-4,1c-1,0.6-1.9,1.4-2.5,2.5     c-0.6,1-1.1,2.2-1.4,3.5c-0.3,1.3-0.4,2.7-0.4,4.1c0,1.3,0.2,2.7,0.5,4c0.3,1.3,0.8,2.5,1.5,3.6c0.7,1,1.6,1.9,2.6,2.5     s2.3,1,3.8,1c1.6,0,2.9-0.3,3.9-1c1-0.6,1.9-1.4,2.5-2.5c0.6-1,1-2.2,1.3-3.6c0.2-1.3,0.4-2.7,0.4-4.1     C422.4,159.5,422.3,158.1,422,156.8z"/>
			<path class="st0" d="M463,178.3v-4.8h-0.2c-1.2,2-2.8,3.5-4.7,4.4c-1.9,0.9-3.9,1.3-5.9,1.3c-2.5,0-4.6-0.3-6.3-1     c-1.7-0.6-2.9-1.6-3.8-2.9c-1-1.2-1.6-2.7-2-4.5c-0.4-1.7-0.6-3.7-0.6-5.9v-21.2h9.5v19.5c0,2.9,0.5,5,1.3,6.4     c0.9,1.4,2.5,2.1,4.8,2.1c2.6,0,4.4-0.8,5.6-2.3s1.7-4,1.7-7.6v-18.1h9.5v34.5L463,178.3L463,178.3z"/>
			<path class="st0" d="M488.2,169.7c0.4,0.7,1,1.3,1.7,1.8c0.6,0.5,1.4,0.8,2.3,1c0.9,0.2,1.7,0.3,2.7,0.3c0.6,0,1.3-0.1,2.1-0.2     c0.8-0.2,1.4-0.4,2-0.7c0.6-0.3,1.1-0.8,1.5-1.3c0.4-0.6,0.6-1.3,0.6-2.1c0-1.4-1-2.5-2.9-3.2c-1.9-0.7-4.5-1.4-7.9-2.1     c-1.3-0.3-2.7-0.7-4-1.1c-1.3-0.4-2.5-1-3.5-1.7c-1-0.7-1.8-1.6-2.5-2.6c-0.6-1-1-2.3-1-3.8c0-2.2,0.4-4,1.3-5.5     c0.9-1.4,2-2.5,3.4-3.4c1.4-0.8,3-1.4,4.8-1.7c1.7-0.3,3.6-0.5,5.5-0.5c1.9,0,3.7,0.2,5.5,0.6c1.7,0.4,3.3,1,4.7,1.8     c1.3,0.9,2.5,2,3.4,3.4c1,1.4,1.4,3.2,1.7,5.3h-9c-0.2-1.8-0.8-3.1-2.1-3.7c-1.3-0.6-2.7-1-4.4-1c-0.6,0-1.1,0-1.7,0.1     c-0.6,0.1-1.2,0.2-1.7,0.4c-0.5,0.2-1,0.6-1.3,1c-0.3,0.4-0.6,1-0.6,1.7c0,0.9,0.3,1.5,1,2.1c0.6,0.6,1.4,1,2.5,1.3     c1,0.3,2.1,0.6,3.4,0.9c1.3,0.2,2.6,0.6,4,0.9c1.3,0.3,2.7,0.7,4,1.1c1.3,0.5,2.5,1,3.5,1.7c1,0.7,1.8,1.7,2.5,2.8     c0.6,1.1,1,2.5,1,4c0,2.3-0.5,4.2-1.3,5.7c-1,1.5-2.1,2.8-3.6,3.7c-1.5,1-3.2,1.6-5.1,2c-1.9,0.4-3.8,0.6-5.8,0.6s-4-0.2-5.9-0.6     c-1.9-0.4-3.6-1-5.1-2c-1.5-1-2.7-2.1-3.6-3.7c-1-1.5-1.5-3.5-1.6-5.8h9C487.6,168.1,487.7,168.9,488.2,169.7z"/>
			<path class="st0" d="M536,143.8v6.3h-7v17.1c0,1.6,0.2,2.7,0.8,3.2c0.6,0.5,1.6,0.8,3.2,0.8c0.6,0,1,0,1.5-0.1s1-0.1,1.4-0.2v7.4     c-0.8,0.2-1.7,0.2-2.7,0.2c-1,0.1-1.9,0.1-2.9,0.1c-1.5,0-2.9-0.1-4.2-0.3c-1.3-0.2-2.5-0.6-3.5-1.2c-1-0.6-1.8-1.4-2.4-2.5     c-0.6-1-0.9-2.5-0.9-4.2V150h-5.8v-6.3h5.8v-10.3h9.5v10.4H536z"/>
			<path class="st0" d="M550.5,143.8v6.4h0.2c0.5-1,1-2.1,1.8-3c0.8-1,1.7-1.7,2.6-2.4c1-0.6,2.1-1.1,3.2-1.5     c1.1-0.3,2.3-0.6,3.5-0.6c0.6,0,1.3,0.1,2.1,0.3v8.8c-0.5-0.1-1-0.2-1.6-0.2c-0.6-0.1-1.2-0.1-1.8-0.1c-1.7,0-3.2,0.3-4.4,0.9     c-1.2,0.6-2.1,1.3-2.9,2.4c-0.7,1-1.3,2.1-1.6,3.5s-0.5,2.8-0.5,4.4v15.5h-9.5v-34.5h9V143.8z"/>
			<path class="st0" d="M568.6,138.4v-7.8h9.5v7.8H568.6z M578.1,143.8v34.5h-9.5v-34.5C568.6,143.8,578.1,143.8,578.1,143.8z"/>
			<path class="st0" d="M586.1,154.4c0.2-2.2,0.7-4,1.7-5.5c1-1.5,2.2-2.6,3.7-3.6c1.5-0.9,3.2-1.5,5.1-1.9c1.9-0.4,3.8-0.6,5.7-0.6     c1.7,0,3.5,0.2,5.3,0.4c1.7,0.2,3.4,0.7,4.9,1.4c1.5,0.7,2.7,1.7,3.6,3c1,1.3,1.4,2.9,1.4,5.1v18c0,1.6,0.1,3.1,0.2,4.4     c0.2,1.4,0.5,2.5,1,3.2h-9.6c-0.2-0.6-0.3-1.1-0.4-1.7c-0.1-0.6-0.2-1.1-0.2-1.7c-1.5,1.6-3.3,2.6-5.3,3.2c-2.1,0.6-4.1,1-6.3,1     c-1.7,0-3.2-0.2-4.6-0.6c-1.4-0.4-2.7-1-3.7-1.9c-1-0.9-1.9-1.9-2.5-3.2c-0.6-1.3-0.9-2.9-0.9-4.6c0-2,0.3-3.6,1-4.8     c0.7-1.3,1.6-2.3,2.7-3c1.1-0.8,2.4-1.3,3.7-1.7c1.4-0.4,2.9-0.7,4.3-0.9c1.4-0.2,2.9-0.4,4.2-0.6c1.3-0.2,2.6-0.3,3.6-0.6     c1-0.3,1.9-0.6,2.5-1.2c0.6-0.5,1-1.3,0.9-2.2c0-1-0.2-1.8-0.5-2.5s-0.8-1-1.3-1.4c-0.6-0.3-1.2-0.6-1.9-0.6s-1.5-0.2-2.4-0.2     c-1.9,0-3.3,0.4-4.4,1.2c-1,0.8-1.7,2.1-1.9,4H586.1z M608.1,161.3c-0.4,0.4-0.9,0.6-1.5,0.9s-1.3,0.4-1.9,0.5     c-0.7,0.2-1.4,0.2-2.1,0.3c-0.8,0.1-1.5,0.2-2.3,0.3c-0.7,0.2-1.4,0.3-2.1,0.6c-0.7,0.2-1.3,0.6-1.8,0.9c-0.5,0.4-1,0.9-1.3,1.4     c-0.3,0.6-0.5,1.3-0.5,2.2s0.2,1.6,0.5,2.1s0.7,1,1.3,1.3c0.6,0.3,1.2,0.6,1.9,0.7c0.7,0.2,1.4,0.2,2.2,0.2c1.9,0,3.3-0.3,4.4-1     c1-0.6,1.7-1.3,2.3-2.2c0.5-0.9,0.8-1.7,0.9-2.6s0.2-1.6,0.2-2.1L608.1,161.3L608.1,161.3z"/>
			<path class="st0" d="M635.6,130.6v47.7h-9.5v-47.7H635.6z"/>
			<path class="st0" d="M348.1,192.6v47.7h-10.5v-47.7H348.1z"/>
			<path class="st0" d="M366,205.8v4.8h0.2c1.2-2,2.8-3.5,4.7-4.4c1.9-1,3.9-1.3,5.9-1.3c2.5,0,4.6,0.3,6.3,1     c1.7,0.7,2.9,1.7,3.8,2.9c1,1.2,1.6,2.7,2,4.5c0.4,1.7,0.6,3.7,0.6,5.9v21.2h-9.5v-19.5c0-2.9-0.5-5-1.3-6.4     c-0.9-1.4-2.5-2.1-4.8-2.1c-2.6,0-4.4,0.8-5.6,2.3c-1.2,1.5-1.7,4-1.7,7.6v18.1h-9.5v-34.5L366,205.8L366,205.8z"/>
			<path class="st0" d="M406.1,205.8v4.8h0.2c1.2-2,2.8-3.5,4.7-4.4c1.9-1,3.9-1.3,5.9-1.3c2.5,0,4.6,0.3,6.3,1     c1.7,0.7,2.9,1.7,3.8,2.9c1,1.2,1.6,2.7,2,4.5c0.4,1.7,0.6,3.7,0.6,5.9v21.2H420v-19.5c0-2.9-0.5-5-1.3-6.4     c-0.9-1.4-2.5-2.1-4.8-2.1c-2.6,0-4.4,0.8-5.6,2.3c-1.2,1.5-1.7,4-1.7,7.6v18.1H397v-34.5L406.1,205.8L406.1,205.8z"/>
			<path class="st0" d="M437.4,215.5c0.9-2.2,2.1-4.2,3.6-5.8c1.6-1.6,3.4-2.8,5.6-3.6c2.2-0.9,4.6-1.3,7.4-1.3     c2.7,0,5.1,0.4,7.4,1.3c2.2,0.9,4.1,2.1,5.6,3.6c1.6,1.6,2.8,3.5,3.6,5.8c0.9,2.2,1.3,4.8,1.3,7.5s-0.4,5.2-1.3,7.4     c-0.9,2.2-2.1,4.1-3.6,5.7s-3.4,2.8-5.6,3.6c-2.2,0.9-4.7,1.3-7.4,1.3c-2.7,0-5.1-0.4-7.4-1.3c-2.2-0.9-4-2.1-5.6-3.6     s-2.8-3.5-3.6-5.7c-0.9-2.2-1.3-4.8-1.3-7.4C436.2,220.3,436.6,217.8,437.4,215.5z M446.1,227.1c0.2,1.3,0.7,2.5,1.3,3.6     c0.6,1,1.5,1.9,2.5,2.5s2.4,1,4,1c1.6,0,2.9-0.3,4-1c1.1-0.6,2-1.4,2.6-2.5c0.6-1,1.1-2.2,1.3-3.6c0.2-1.3,0.4-2.7,0.4-4     c0-1.3-0.2-2.8-0.4-4c-0.2-1.3-0.7-2.5-1.3-3.6c-0.6-1-1.5-1.8-2.6-2.5c-1.1-0.6-2.5-1-4-1s-2.9,0.3-4,1c-1,0.6-1.9,1.5-2.5,2.5     c-0.6,1-1.1,2.2-1.3,3.6c-0.2,1.3-0.4,2.7-0.4,4S445.7,225.8,446.1,227.1z"/>
			<path class="st0" d="M487.2,240.3l-11.8-34.5h10l7.3,23.6h0.2l7.3-23.6h9.4l-11.7,34.5H487.2z"/>
			<path class="st0" d="M513.5,216.4c0.2-2.2,0.7-4,1.7-5.5c1-1.5,2.2-2.6,3.7-3.6c1.5-0.9,3.2-1.5,5.1-1.9c1.9-0.4,3.8-0.6,5.7-0.6     c1.7,0,3.5,0.2,5.3,0.4c1.7,0.2,3.4,0.7,4.9,1.4s2.7,1.7,3.6,3c1,1.3,1.4,2.9,1.4,5.1v18c0,1.6,0.1,3.1,0.2,4.4     c0.2,1.4,0.5,2.5,1,3.2h-9.6c-0.2-0.6-0.3-1.1-0.4-1.7c-0.1-0.6-0.2-1.1-0.2-1.7c-1.5,1.6-3.3,2.6-5.3,3.2c-2.1,0.6-4.1,1-6.3,1     c-1.7,0-3.2-0.2-4.6-0.6c-1.4-0.4-2.7-1-3.7-1.9c-1-0.9-1.9-1.9-2.5-3.2c-0.6-1.3-0.9-2.9-0.9-4.6c0-2,0.3-3.6,1-4.8     c0.7-1.3,1.6-2.3,2.7-3c1.1-0.8,2.4-1.3,3.7-1.7c1.4-0.4,2.9-0.7,4.3-0.9c1.4-0.2,2.9-0.4,4.2-0.6c1.3-0.2,2.6-0.3,3.6-0.6     c1-0.2,1.9-0.6,2.5-1.2c0.6-0.5,1-1.3,0.9-2.2c0-1-0.2-1.8-0.5-2.5s-0.8-1-1.3-1.4c-0.6-0.3-1.2-0.6-1.9-0.6s-1.5-0.2-2.4-0.2     c-1.9,0-3.3,0.4-4.4,1.2c-1,0.8-1.7,2.1-1.9,4L513.5,216.4L513.5,216.4z M535.3,223.4c-0.4,0.4-0.9,0.6-1.5,0.9s-1.3,0.4-1.9,0.5     c-0.7,0.2-1.4,0.2-2.1,0.3c-0.8,0.1-1.5,0.2-2.3,0.3c-0.7,0.2-1.4,0.3-2.1,0.6c-0.7,0.2-1.3,0.6-1.8,0.9c-0.5,0.4-1,0.9-1.3,1.4     s-0.5,1.3-0.5,2.2s0.2,1.6,0.5,2.1c0.3,0.6,0.7,1,1.3,1.3c0.6,0.3,1.2,0.6,1.9,0.7c0.7,0.2,1.4,0.2,2.2,0.2c1.9,0,3.3-0.3,4.4-1     c1-0.6,1.7-1.3,2.3-2.2c0.5-0.9,0.8-1.7,0.9-2.6c0.1-0.9,0.2-1.6,0.2-2.1L535.3,223.4L535.3,223.4z"/>
			<path class="st0" d="M571.7,205.8v6.3h-7v17.1c0,1.6,0.2,2.7,0.8,3.2s1.6,0.8,3.2,0.8c0.6,0,1,0,1.5-0.1c0.5-0.1,1-0.1,1.4-0.2     v7.4c-0.8,0.2-1.7,0.2-2.7,0.2c-1,0.1-1.9,0.1-2.9,0.1c-1.5,0-2.9-0.1-4.2-0.3c-1.3-0.2-2.5-0.6-3.5-1.2c-1-0.6-1.8-1.4-2.4-2.5     s-0.9-2.5-0.9-4.2V212h-5.8v-6.3h5.8v-10.4h9.5v10.4L571.7,205.8L571.7,205.8z"/>
			<path class="st0" d="M577,215.5c0.9-2.2,2.1-4.2,3.6-5.8c1.6-1.6,3.4-2.8,5.6-3.6s4.6-1.3,7.4-1.3c2.7,0,5.1,0.4,7.4,1.3     s4.1,2.1,5.6,3.6c1.6,1.6,2.8,3.5,3.6,5.8c0.9,2.2,1.3,4.8,1.3,7.5s-0.4,5.2-1.3,7.4c-0.9,2.2-2.1,4.1-3.6,5.7     c-1.6,1.6-3.4,2.8-5.6,3.6s-4.7,1.3-7.4,1.3c-2.7,0-5.1-0.4-7.4-1.3s-4-2.1-5.6-3.6s-2.8-3.5-3.6-5.7c-0.9-2.2-1.3-4.8-1.3-7.4     C575.7,220.3,576.1,217.8,577,215.5z M585.6,227.1c0.2,1.3,0.7,2.5,1.3,3.6c0.6,1,1.5,1.9,2.5,2.5c1,0.6,2.4,1,4,1     c1.6,0,2.9-0.3,4-1c1.1-0.6,2-1.4,2.6-2.5c0.6-1,1.1-2.2,1.3-3.6s0.4-2.7,0.4-4c0-1.3-0.2-2.8-0.4-4c-0.2-1.3-0.7-2.5-1.3-3.6     c-0.6-1-1.5-1.8-2.6-2.5c-1.1-0.6-2.5-1-4-1s-2.9,0.3-4,1c-1,0.6-1.9,1.5-2.5,2.5c-0.6,1-1.1,2.2-1.3,3.6c-0.2,1.3-0.4,2.7-0.4,4     S585.3,225.8,585.6,227.1z"/>
			<path class="st0" d="M627.2,205.8v6.4h0.2c0.5-1,1-2.1,1.8-3c0.8-1,1.7-1.7,2.6-2.4c1-0.6,2.1-1.1,3.2-1.5     c1.1-0.3,2.3-0.6,3.5-0.6c0.6,0,1.3,0.1,2.1,0.3v8.8c-0.5-0.1-1-0.2-1.6-0.2c-0.6-0.1-1.2-0.1-1.8-0.1c-1.7,0-3.2,0.3-4.4,0.9     c-1.2,0.6-2.1,1.3-2.9,2.4c-0.7,1-1.3,2.1-1.6,3.5c-0.3,1.3-0.5,2.8-0.5,4.4v15.5h-9.5v-34.5h9V205.8z"/>
			<path class="st0" d="M652.7,231.7c0.4,0.7,1,1.3,1.7,1.8c0.6,0.5,1.4,0.8,2.3,1s1.7,0.3,2.7,0.3c0.6,0,1.3-0.1,2.1-0.2     c0.7-0.2,1.4-0.4,2-0.7c0.6-0.3,1.1-0.8,1.5-1.3c0.4-0.6,0.6-1.3,0.6-2.1c0-1.4-1-2.5-2.9-3.2s-4.5-1.4-7.9-2.1     c-1.3-0.3-2.7-0.7-4-1.1c-1.3-0.4-2.5-1-3.5-1.7c-1-0.7-1.8-1.6-2.5-2.6c-0.6-1-1-2.3-1-3.8c0-2.2,0.4-4,1.3-5.5     c0.9-1.4,2-2.5,3.4-3.4c1.4-0.8,3-1.4,4.8-1.7c1.7-0.3,3.6-0.5,5.5-0.5c1.9,0,3.7,0.2,5.5,0.6c1.7,0.4,3.3,1,4.7,1.8     c1.3,0.9,2.5,2,3.4,3.4c1,1.4,1.4,3.2,1.7,5.3h-9c-0.2-1.8-0.8-3.1-2.1-3.7c-1.3-0.6-2.7-1-4.4-1c-0.6,0-1.1,0-1.7,0.1     c-0.6,0.1-1.2,0.2-1.7,0.4c-0.5,0.2-1,0.6-1.3,1c-0.4,0.4-0.6,1-0.6,1.7c0,0.9,0.3,1.5,1,2.1c0.6,0.6,1.4,1,2.5,1.3     c1,0.3,2.1,0.6,3.4,0.9s2.6,0.6,4,0.9c1.3,0.3,2.7,0.7,4,1.1c1.3,0.5,2.5,1,3.5,1.7c1,0.7,1.8,1.7,2.5,2.8c0.6,1.1,1,2.5,1,4     c0,2.3-0.5,4.2-1.3,5.7c-1,1.5-2.1,2.8-3.6,3.7c-1.5,1-3.2,1.6-5.1,2c-1.9,0.4-3.8,0.6-5.8,0.6c-2,0-4-0.2-5.9-0.6     c-1.9-0.4-3.6-1-5.1-2c-1.5-1-2.7-2.1-3.6-3.7c-1-1.5-1.5-3.5-1.6-5.8h9.1C652,230.1,652.3,231,652.7,231.7z"/>
		</g>
	</g>
</g>
</svg>