<?xml version="1.0" encoding="UTF-8"?>
<svg xmlns="http://www.w3.org/2000/svg" id="a" viewBox="0 0 105.591 35.717" width="105" height="37">
  <defs>
    <style>.b{fill:#64a0c8;}</style>
  </defs>
  <path class="b" d="M4.98,17.874h-.027c-.468-.629-1.124-.95-1.98-.95C1.006,16.924,.042,18.637,.042,20.443c0,1.954,.923,3.827,3.104,3.827,.803,0,1.472-.348,1.914-1.003h.027v.803h2.168V14.515h-2.275v3.359Zm-1.271,4.657c-1.043,0-1.392-1.057-1.392-2.007,0-.883,.348-1.86,1.392-1.86,.99,0,1.352,.923,1.352,1.927,0,.883-.241,1.94-1.352,1.94Z"/>
  <path class="b" d="M12.223,16.924c-2.047,0-3.747,1.525-3.747,3.653,0,2.329,1.539,3.693,3.8,3.693,1.552,0,3.038-.696,3.453-2.302h-2.127c-.214,.509-.75,.763-1.298,.763-.963,0-1.512-.629-1.552-1.579h5.099c.107-2.355-1.138-4.229-3.626-4.229h-.002Zm-1.472,2.959c.134-.843,.669-1.418,1.472-1.418,.763,0,1.312,.642,1.352,1.418h-2.824Z"/>
  <path class="b" d="M19.304,18.342h-.026v-1.218h-2.208v6.945h2.275v-3.439c0-.87,.589-1.646,1.713-1.646,.308,0,.575,.053,.87,.134v-2.074c-.174-.041-.361-.054-.535-.054-.977,0-1.753,.468-2.088,1.352h-.001Z"/>
  <polygon class="b" points="31.806 24.07 31.806 16.656 34.656 16.656 34.656 14.515 26.466 14.515 26.466 16.656 29.317 16.656 29.317 24.07 31.806 24.07"/>
  <path class="b" d="M41.858,20.269c0,1.231-.455,1.86-1.673,1.86s-1.672-.629-1.672-1.86v-5.754h-2.489v5.607c0,2.77,1.271,4.148,4.162,4.148s4.162-1.378,4.162-4.148v-5.607h-2.489v5.754h0Z"/>
  <polygon class="b" points="51.228 20.885 51.202 20.885 49.556 14.515 45.889 14.515 45.889 24.07 48.231 24.07 48.231 16.817 48.258 16.817 50.265 24.07 52.165 24.07 54.173 16.817 54.2 16.817 54.2 24.07 56.541 24.07 56.541 14.515 52.874 14.515 51.228 20.885"/>
  <polygon class="b" points=".286 9.557 2.775 9.557 2.775 5.877 6.709 5.877 6.709 3.951 2.775 3.951 2.775 1.996 7.325 1.996 7.325 .003 .286 .003 .286 9.557"/>
  <path class="b" d="M10.526,6.118c0-.87,.589-1.646,1.713-1.646,.308,0,.575,.053,.87,.134V2.532c-.174-.04-.361-.054-.535-.054-.977,0-1.753,.468-2.088,1.352h-.026v-1.218h-2.208v6.945h2.275v-3.439h-.001Z"/>
  <path class="b" d="M17.633,9.758c1.552,0,3.038-.696,3.453-2.302h-2.127c-.214,.509-.75,.763-1.298,.763-.963,0-1.512-.629-1.552-1.579h5.099c.107-2.355-1.138-4.229-3.626-4.229-2.047,0-3.747,1.525-3.747,3.653,0,2.329,1.539,3.693,3.8,3.693h-.002Zm-.053-5.807c.763,0,1.312,.642,1.352,1.418h-2.824c.134-.843,.669-1.418,1.472-1.418Z"/>
  <path class="b" d="M25.17,9.758c.803,0,1.686-.441,2.114-1.151h.027v.95h2.208V2.612h-2.275v3.72c0,1.231-.75,1.552-1.245,1.552-.723,0-1.124-.321-1.124-1.245V2.612h-2.275V6.787c0,1.82,.575,2.971,2.569,2.971h0Z"/>
  <path class="b" d="M33.368,5.77c0-.763,.375-1.485,1.231-1.485,1.244,0,1.137,.963,1.137,1.914v3.359h2.275V5.101c0-1.004-.187-2.69-2.502-2.69-.83,0-1.766,.441-2.181,1.151h-.027v-.95h-2.208v6.945h2.275v-3.787Z"/>
  <path class="b" d="M42.341,9.758c.803,0,1.472-.348,1.914-1.003h.027v.803h2.168V.003h-2.275V3.362h-.027c-.468-.629-1.124-.95-1.98-.95-1.967,0-2.931,1.713-2.931,3.52,0,1.954,.923,3.827,3.104,3.827h0Zm.562-5.608c.99,0,1.352,.923,1.352,1.927,0,.883-.241,1.94-1.352,1.94-1.043,0-1.392-1.057-1.392-2.007,0-.883,.348-1.86,1.392-1.86Z"/>
  <path class="b" d="M51.31,9.758c1.553,0,3.038-.696,3.453-2.302h-2.127c-.214,.509-.75,.763-1.298,.763-.963,0-1.512-.629-1.552-1.579h5.099c.107-2.355-1.138-4.229-3.626-4.229-2.047,0-3.747,1.525-3.747,3.653,0,2.329,1.539,3.693,3.8,3.693h-.002Zm-.053-5.807c.763,0,1.312,.642,1.352,1.418h-2.824c.134-.843,.669-1.418,1.472-1.418Z"/>
  <path class="b" d="M62.897,22.105h2.901l.777,1.981h.651l-2.5-6.374h-.678l-2.571,6.374h.652l.768-1.981Zm1.464-3.785l1.232,3.267h-2.508l1.276-3.267Z"/>
  <path class="b" d="M71.18,22.837c0-.804-.67-1.178-1.312-1.277l-.75-.169c-.384-.098-.956-.277-.956-.776,0-.598,.589-.794,1.089-.794,.643,0,1.178,.312,1.205,1.008h.562c-.036-1-.768-1.481-1.687-1.481-.812,0-1.731,.357-1.731,1.294,0,.786,.553,1.036,1.285,1.232l.723,.161c.509,.125,1.009,.304,1.009,.839,0,.643-.732,.875-1.259,.875-.75,0-1.312-.393-1.357-1.151h-.562c.089,1.125,.821,1.625,1.892,1.625,.857,0,1.848-.384,1.848-1.383v-.003Z"/>
  <path class="b" d="M74.16,21.56l-.75-.169c-.384-.098-.955-.277-.955-.776,0-.598,.589-.794,1.089-.794,.643,0,1.178,.312,1.205,1.008h.562c-.036-1-.768-1.481-1.688-1.481-.812,0-1.731,.357-1.731,1.294,0,.786,.553,1.036,1.285,1.232l.723,.161c.509,.125,1.009,.304,1.009,.839,0,.643-.732,.875-1.259,.875-.75,0-1.312-.393-1.357-1.151h-.562c.089,1.125,.821,1.625,1.892,1.625,.857,0,1.848-.384,1.848-1.383,0-.804-.67-1.178-1.312-1.277v-.003Z"/>
  <path class="b" d="M80.407,21.784c0-1.321-.768-2.437-2.178-2.437s-2.178,1.116-2.178,2.437,.768,2.437,2.178,2.437,2.178-1.116,2.178-2.437Zm-3.794,0c0-.982,.536-1.963,1.616-1.963s1.616,.981,1.616,1.963-.536,1.964-1.616,1.964-1.616-.982-1.616-1.964Z"/>
  <path class="b" d="M83.191,23.747c-1.08,0-1.616-.982-1.616-1.964s.536-1.963,1.616-1.963c.732,0,1.151,.419,1.303,1.106h.562c-.125-1.053-.884-1.58-1.866-1.58-1.41,0-2.178,1.116-2.178,2.437s.768,2.437,2.178,2.437c1.027,0,1.75-.678,1.901-1.785h-.562c-.071,.768-.643,1.312-1.339,1.312h0Z"/>
  <rect class="b" x="85.885" y="19.481" width=".562" height="4.606"/>
  <rect class="b" x="85.885" y="17.713" width=".562" height=".902"/>
  <path class="b" d="M91.035,23.274v-2.446c0-1.231-.883-1.481-1.696-1.481-1.053,0-1.812,.464-1.866,1.544h.562c.018-.75,.536-1.071,1.232-1.071,.661,0,1.205,.187,1.205,.946,0,.509-.259,.571-.723,.625-1.214,.143-2.473,.188-2.473,1.482,0,.928,.696,1.348,1.544,1.348,.883,0,1.285-.339,1.678-.937h.018c0,.482,.089,.803,.661,.803,.152,0,.241-.009,.366-.036v-.473c-.044,.018-.116,.036-.178,.036-.223,0-.331-.125-.331-.339h0Zm-.562-.974c.009,.901-.75,1.446-1.607,1.446-.527,0-1.026-.348-1.026-.91,0-.902,1.187-.893,2.142-1.062,.152-.027,.402-.071,.473-.205h.018v.732h0Z"/>
  <path class="b" d="M92.489,23.105c-.009,.786,.25,1.036,1,1.036,.169,0,.33-.018,.5-.018v-.482c-.161,.018-.322,.027-.482,.027-.401-.027-.455-.241-.455-.607v-3.106h.938v-.473h-.938v-1.384h-.562v1.384h-.803v.473h.803v3.151h0Z"/>
  <rect class="b" x="94.809" y="19.481" width=".562" height="4.606"/>
  <rect class="b" x="94.809" y="17.713" width=".562" height=".902"/>
  <path class="b" d="M98.397,24.221c1.411,0,2.178-1.116,2.178-2.437s-.768-2.437-2.178-2.437-2.178,1.116-2.178,2.437,.768,2.437,2.178,2.437Zm0-4.4c1.08,0,1.616,.981,1.616,1.963s-.536,1.964-1.616,1.964-1.616-.982-1.616-1.964,.536-1.963,1.616-1.963Z"/>
  <path class="b" d="M101.966,21.4c.018-.901,.554-1.58,1.446-1.58,.911,0,1.169,.598,1.169,1.392v2.875h.562v-2.963c0-1.098-.393-1.776-1.687-1.776-.651,0-1.268,.375-1.473,.928h-.018v-.794h-.562v4.606h.562v-2.687h0Z"/>
  <path class="b" d="M24.46,30.697c-1.41,0-2.178,1.116-2.178,2.438s.768,2.437,2.178,2.437,2.178-1.115,2.178-2.437-.768-2.438-2.178-2.438Zm0,4.401c-1.08,0-1.616-.982-1.616-1.964s.536-1.964,1.616-1.964,1.616,.981,1.616,1.964-.536,1.964-1.616,1.964Z"/>
  <path class="b" d="M27.78,30.412v.419h-.785v.474h.785v4.133h.562v-4.133h.911v-.474h-.911v-.401c.009-.5-.009-.893,.616-.893,.134,0,.259,.018,.411,.045v-.482c-.179-.027-.312-.036-.473-.036-.902,0-1.125,.553-1.116,1.348Z"/>
  <path class="b" d="M34.241,29.064l-2.571,6.374h.652l.768-1.981h2.901l.777,1.981h.651l-2.5-6.374h-.678Zm-.964,3.875l1.276-3.268,1.232,3.268h-2.508Z"/>
  <rect class="b" x="38.016" y="29.064" width=".562" height="6.374"/>
  <path class="b" d="M42.827,33.251c0,.937-.419,1.848-1.384,1.848-.893,0-1.205-.438-1.232-1.268v-3h-.562v2.991c0,1.07,.455,1.749,1.616,1.749,.687,0,1.294-.348,1.589-.964h.018v.83h.518v-4.606h-.562v2.42h-.001Z"/>
  <path class="b" d="M49.288,30.697c-.607,0-1.187,.295-1.464,.902-.169-.607-.714-.902-1.321-.902-.732,0-1.214,.357-1.509,.911h-.027v-.777h-.518v4.606h.562v-2.57c.009-.965,.401-1.696,1.375-1.696,.714,0,.973,.518,.964,1.143v3.124h.562v-2.606c0-.857,.277-1.66,1.25-1.66,.804,0,1.089,.41,1.089,1.169v3.098h.562v-3.124c0-1.089-.518-1.616-1.526-1.616v-.002Z"/>
  <path class="b" d="M53.927,30.697c-.651,0-1.268,.375-1.473,.929h-.018v-.795h-.562v4.606h.562v-2.687c.018-.902,.554-1.58,1.446-1.58,.911,0,1.169,.598,1.169,1.393v2.874h.562v-2.964c0-1.098-.393-1.776-1.687-1.776h.001Z"/>
  <rect class="b" x="56.685" y="29.064" width=".562" height=".902"/>
  <rect class="b" x="56.685" y="30.831" width=".562" height="4.606"/>
  <path class="b" d="M64.315,34.625v-2.445c0-1.232-.883-1.482-1.696-1.482-1.053,0-1.812,.465-1.866,1.545h.562c.018-.75,.536-1.071,1.232-1.071,.661,0,1.205,.188,1.205,.946,0,.509-.259,.571-.723,.625-1.214,.143-2.473,.187-2.473,1.481,0,.929,.696,1.348,1.544,1.348,.883,0,1.285-.339,1.678-.938h.018c0,.482,.089,.804,.661,.804,.152,0,.241-.009,.366-.036v-.473c-.044,.018-.116,.036-.178,.036-.223,0-.331-.125-.331-.34h0Zm-.562-.973c.009,.901-.75,1.446-1.607,1.446-.527,0-1.026-.349-1.026-.911,0-.901,1.187-.893,2.142-1.062,.152-.027,.402-.072,.473-.206h.018v.732h0Z"/>
  <path class="b" d="M67.617,30.697c-.651,0-1.268,.375-1.473,.929h-.018v-.795h-.562v4.606h.562v-2.687c.018-.902,.554-1.58,1.446-1.58,.911,0,1.169,.598,1.169,1.393v2.874h.562v-2.964c0-1.098-.393-1.776-1.687-1.776h0Z"/>
  <path class="b" d="M73.855,31.706h-.018c-.241-.66-.91-1.009-1.598-1.009-1.401,0-2.071,1.134-2.071,2.438s.669,2.437,2.071,2.437c.669,0,1.401-.41,1.643-1.009h.018v.875h.518v-6.374h-.562v2.642h0Zm-1.616,3.393c-1.071,0-1.509-1.009-1.509-1.964s.438-1.964,1.509-1.964c1.196,0,1.616,1.009,1.616,1.964s-.419,1.964-1.616,1.964Z"/>
  <polygon class="b" points="78.075 35.437 78.682 35.437 78.682 32.402 81.735 32.402 81.735 31.885 78.682 31.885 78.682 29.582 82.119 29.582 82.119 29.064 78.075 29.064 78.075 35.437"/>
  <path class="b" d="M83.118,31.911h-.018v-1.08h-.518v4.606h.562v-2.455c0-.955,.696-1.705,1.714-1.651v-.562c-.831-.035-1.455,.402-1.741,1.143h0Z"/>
  <rect class="b" x="85.491" y="30.831" width=".562" height="4.606"/>
  <rect class="b" x="85.491" y="29.064" width=".562" height=".902"/>
  <path class="b" d="M88.981,30.697c-1.464,0-2.08,1.224-2.08,2.438,0,1.312,.616,2.437,2.08,2.437,1.161,0,1.768-.606,2.008-1.651h-.562c-.179,.696-.625,1.179-1.446,1.179-1.08,0-1.508-.991-1.518-1.812h3.544c.044-1.294-.544-2.589-2.026-2.589v-.002Zm0,.474c.911,0,1.437,.794,1.464,1.643h-2.981c.089-.84,.598-1.643,1.518-1.643h0Z"/>
  <path class="b" d="M93.809,30.697c-.651,0-1.268,.375-1.473,.929h-.018v-.795h-.562v4.606h.562v-2.687c.018-.902,.554-1.58,1.446-1.58,.911,0,1.169,.598,1.169,1.393v2.874h.562v-2.964c0-1.098-.393-1.776-1.687-1.776h0Z"/>
  <path class="b" d="M100.047,31.706h-.018c-.241-.66-.91-1.009-1.598-1.009-1.401,0-2.071,1.134-2.071,2.438s.669,2.437,2.071,2.437c.669,0,1.401-.41,1.643-1.009h.018v.875h.518v-6.374h-.562v2.642h0Zm-1.616,3.393c-1.071,0-1.509-1.009-1.509-1.964s.438-1.964,1.509-1.964c1.196,0,1.616,1.009,1.616,1.964s-.419,1.964-1.616,1.964Z"/>
  <path class="b" d="M103.848,32.911l-.75-.169c-.384-.099-.955-.277-.955-.777,0-.598,.589-.794,1.089-.794,.643,0,1.178,.312,1.205,1.009h.562c-.036-1-.768-1.482-1.688-1.482-.812,0-1.731,.357-1.731,1.295,0,.785,.553,1.035,1.285,1.231l.723,.161c.509,.125,1.009,.303,1.009,.839,0,.643-.732,.875-1.259,.875-.75,0-1.312-.394-1.357-1.151h-.562c.089,1.124,.821,1.624,1.892,1.624,.857,0,1.848-.384,1.848-1.384,0-.803-.67-1.178-1.312-1.276h.001Z"/>
</svg>